<?xml version="1.0" encoding="iso-8859-1"?>
<!-- Generator: Adobe Illustrator 16.0.0, SVG Export Plug-In . SVG Version: 6.00 Build 0)  -->
<!DOCTYPE svg PUBLIC "-//W3C//DTD SVG 1.1//EN" "http://www.w3.org/Graphics/SVG/1.1/DTD/svg11.dtd">
<svg version="1.1" id="Capa_1" xmlns="http://www.w3.org/2000/svg" xmlns:xlink="http://www.w3.org/1999/xlink" x="0px" y="0px"
	 width="512px" height="512px" viewBox="0 0 512 512" style="enable-background:new 0 0 512 512;" xml:space="preserve">
<g>
	<path d="M96,64V32c0-17.688,14.328-32,32-32s32,14.313,32,32v32c0,17.688-14.328,32-32,32S96,81.688,96,64z M320,96
		c17.688,0,32-14.313,32-32V32c0-17.688-14.312-32-32-32s-32,14.313-32,32v32C288,81.688,302.312,96,320,96z M448,448H0V64h80
		c0,26.469,21.531,48,48,48c26.469,0,48-21.531,48-48h96c0,26.469,21.531,48,48,48s48-21.531,48-48h80V448z M416,160H32v256h384V160
		z M480,96v384H32v32h448h32v-32V96H480z M160,192H96v64h64V192z M256,192h-64v64h64V192z M352,192h-64v64h64V192z M160,288H96v64
		h64V288z M256,288h-64v64h64V288z M352,288h-64v64h64V288z"/>
</g>
<g>
</g>
<g>
</g>
<g>
</g>
<g>
</g>
<g>
</g>
<g>
</g>
<g>
</g>
<g>
</g>
<g>
</g>
<g>
</g>
<g>
</g>
<g>
</g>
<g>
</g>
<g>
</g>
<g>
</g>
</svg>
